<svg id="Layer_1" enable-background="new 0 0 510 510" height="512" viewBox="0 0 510 510" width="512" xmlns="http://www.w3.org/2000/svg"><g><g><path d="m255 0c-32.511 0-60.886 6.076-84.304 14.204l-84.645 96.106c-.109 2.281-.166 4.488-.166 6.596 0 140.833 118.763 254.972 259.596 254.972 54.231 0 114.568-25.992 154.949-57.243.903-.699 3.769-5.396 3.769-5.396.178-1.087 5.8-23.477 5.8-54.239.001-140.833-114.166-255-254.999-255z" fill="#6ee1ff"/><path d="m345.459 364.679c-140.833 0-255-114.167-255-255l-38.274-9.244c-29.23 38.291-47.867 85.104-51.523 136.061l2.554 59.107c5.567 34.794 18.173 67.237 36.311 95.825l82.368 14.596 336.853 2.343c21.713-28.794 37.498-62.413 45.452-99.129-43.56 34.696-98.725 55.441-158.741 55.441z" fill="#05cdff"/></g><path d="m132.915 371.878c-19.231 0-36.418 8.749-47.799 22.484-6.926-5.305-15.589-8.458-24.987-8.458-7.507 0-14.543 2.011-20.601 5.524 24.536 38.671 59.195 70.285 100.25 91.116l55.185-48.62c-.002-34.267-27.781-62.046-62.048-62.046z" fill="#57988b"/><g><path d="m124.95 221.616c-4.119 0-8.077.676-11.783 1.906-8.402-14.413-24.015-24.107-41.902-24.107-23.467 0-43.037 16.675-47.515 38.821-4.116-2.052-8.755-3.213-13.667-3.213-3.286 0-6.452.517-9.42 1.474-.44 6.11-.663 12.281-.663 18.503 0 13.819 1.099 27.381 3.215 40.604 2.208.505 4.506.772 6.867.772h121.969v-.682c17.247-3.318 30.279-18.482 30.279-36.698 0-20.645-16.736-37.38-37.38-37.38z" fill="#fff"/></g><g><g><path d="m503.486 89.915c0-20.645-16.736-37.38-37.38-37.38-4.119 0-8.077.676-11.783 1.906-8.402-14.413-24.015-24.107-41.902-24.107-23.467 0-43.037 16.675-47.515 38.821-4.116-2.052-8.755-3.213-13.667-3.213-16.942 0-30.677 13.734-30.677 30.677 0 16.942 13.734 30.677 30.677 30.677h121.969v-.682c17.246-3.319 30.278-18.483 30.278-36.699z" fill="#dafffb"/></g></g><g><path d="m299.324 164.607-52.216 114.028 1.887 162.811 104.951 48.612c30.507-12.86 58.06-31.499 81.225-54.612l23.576-84.565v-69.523z" fill="#fff"/><path d="m299.324 164.607-159.424 116.752v69.523l16.463 50.74-16.463 33.825v47.16c31.513 15.968 66.79 25.583 104.146 27.162l5.836-71.818v-156.592l104.433-76.48z" fill="#e6dcdc"/><g><g><g><path d="m450.134 173.009h-43.521l-23.037 48.678 66.558 28.001z" fill="#d80a61"/></g></g></g><g><g><g><path d="m406.613 173.009h-23.037v48.678l23.037 9.692z" fill="#a51f6b"/></g></g></g><g><g><g><path d="m479.165 316.744-179.841-121.839-9.684-27.242 9.684-33.354 207.978 140.902z" fill="#dd542e"/></g></g></g><g><g><g><path d="m299.324 194.905-179.842 121.839-28.137-41.533 207.979-140.902z" fill="#d80a61"/></g></g></g><g><g><g><path d="m88.212 163.885h205.013v20h-205.013z" fill="#1e87dc" transform="matrix(.828 -.561 .561 .828 -64.706 136.901)"/></g></g></g></g><g><path d="m52.184 100.435c12.907 10.002 29.109 15.956 46.702 15.956 42.145 0 76.309-34.165 76.309-76.309 0-9.084-1.587-17.797-4.5-25.877-47.264 16.407-74.332 41.178-74.443 41.241-16.47 13.122-31.282 28.24-44.068 44.989z" fill="#f9ef63"/></g><g><g><g><g><path d="m116.184 139.739h16.965v30.258h-16.965z" fill="#f4dd45" transform="matrix(.825 -.566 .566 .825 -65.753 97.716)"/></g></g><g><g><path d="m114.394 173.511 31.362-21.522-4.919 26.442z" fill="#df8621"/></g></g></g><g><g><g><path d="m158.153 110.938h16.965v30.258h-16.965z" fill="#f4dd45" transform="matrix(.825 -.566 .566 .825 -42.092 116.409)"/></g></g><g><g><path d="m156.363 144.71 31.362-21.523-4.92 26.443z" fill="#df8621"/></g></g></g><g><g><g><path d="m200.121 82.137h16.965v30.258h-16.965z" fill="#f4dd45" transform="matrix(.825 -.566 .566 .825 -18.43 135.104)"/></g></g><g><g><path d="m198.331 115.909 31.363-21.523-4.92 26.443z" fill="#df8621"/></g></g></g></g><path d="m299.324 398.832c-4.011 0-7.919.438-11.687 1.249v107.84c23.422-3.003 45.902-9.193 66.965-18.141v-35.67c0-30.53-24.749-55.278-55.278-55.278z" fill="#a55a3c"/><path d="m255 510c11.187 0 22.219-.725 33.049-2.131v-53.759c0-22.71 13.695-42.221 33.276-50.726-6.742-2.928-14.182-4.552-22.001-4.552-30.529 0-55.278 24.749-55.278 55.278v55.659c3.632.153 7.284.231 10.954.231z" fill="#783c28"/><g><path d="m214.362 435.447h-74.462v-36.283l5.856-6-5.856-6v-36.283h74.462z" fill="#c8bec3"/></g><path d="m458.747 350.881h-30.352-44.11v84.565h50.886c8.469-8.45 16.351-17.497 23.576-27.079v-9.203l-4.267-6 4.267-6z" fill="#c8bec3"/><g><path d="m139.9 387.164h89.518v12h-89.518z" fill="#e6dcdc"/></g><g><path d="m377.23 265.302s-60.976-12.588-108.09 6.94c0 0-62.014 115.817-35.833 141.096 25.662 24.778 136.983-39.946 136.983-39.946 19.528-47.115 6.94-108.09 6.94-108.09z" fill="#9bd069"/><g><g><path d="m262.832 380.147s-12.602-61.046 6.975-108.172c-11.124 4.527-21.502 10.817-30.151 19.466-45.208 45.208-26.14 137.574-26.14 137.574s92.365 19.068 137.574-26.14c8.455-8.455 14.661-18.56 19.165-29.402-47.022 19.138-107.423 6.674-107.423 6.674z" fill="#6ec17d"/></g></g><g><g><path d="m306.728 335.803c-3.404-3.404-8.925-3.405-12.331 0l-64.849 64.849c.051.058.108.107.157.167 3.681 4.479 7.103 9.147 10.517 13.821l66.506-66.507c3.405-3.404 3.405-8.925 0-12.33z" fill="#6ec17d"/></g></g><g><g><path d="m196.002 455.249c-2.231 0-4.463-.852-6.165-2.554-3.405-3.405-3.405-8.926 0-12.331l57.445-57.441 9.534-9.087c3.485-3.323 9.005-3.19 12.327.296s3.19 9.005-.296 12.327l-9.458 9.015-57.221 57.222c-1.703 1.701-3.934 2.553-6.166 2.553z" fill="#57988b"/></g></g></g><g><path d="m171.131 344.881h12v96.565h-12z" fill="#e6dcdc"/></g><g><path d="m415.516 347.159h12v90.793h-12z" fill="#f5f0f0"/></g><g><path d="m379.285 387.164h79.462v12h-79.462z" fill="#f5f0f0"/></g></g></svg>